# xmcd
#
# Track frame offsets:
# 183
# 11605
# 24355
# 35120
# 45130
# 56788
# 68230
# 78715
# 90260
# 101038
#
# Disc length: 1501 seconds
#
#
# Revision: 0
# Processed by: cddbd v1.5.2PL0 Copyright (c) Steve Scherf et al.
# Submitted via: FreeRIP 2.30 
#
DISCID=7605db0a
DTITLE=Kitty Wells - Country Spotlight On Kitty Wells
DYEAR=1900
DGENRE=Country
TTITLE0=It Wasn't God Who Made Honky Tonk Angels
TTITLE1=Makin' Believe
TTITLE2=Unloved Unwanted
TTITLE3=I Can't Stop Loving You
TTITLE4=You Dont Hear
TTITLE5=Heartbreak U.S.A
TTITLE6=Searchin' (For Someone Like You)
TTITLE7=Password
TTITLE8=Mommy For A Day
TTITLE9=Amigo's Guitar
EXTD=
EXTT0=
EXTT1=
EXTT2=
EXTT3=
EXTT4=
EXTT5=
EXTT6=
EXTT7=
EXTT8=
EXTT9=
PLAYORDER=
